PathFileType	4	(X/Y/Z)	D:\TRACE\v60_Jaco2_6-2-23\BothDRS_Motion2_10-v60.trc
DataRate	CameraRate	NumFrames	NumMarkers	Units	OrigDataRate	OrigDataStartFrame	OrigNumFrames
100.00	100.00	      24	9	mm	100.00	2813	      7500
Frame#	Time	front left toe			Front right toe			aft left toe			aft right toe			Arm			FL body			FR body			AL Body			AR Body			
		X1	Y1	Z1	X2	Y2	Z2	X3	Y3	Z3	X4	Y4	Z4	X5	Y5	Z5	X6	Y6	Z6	X7	Y7	Z7	X8	Y8	Z8	X9	Y9	Z9	

2813	28.120	-276.75223	15.66594	-289.36365	216.54793	9.48815	-331.69131	2.07037	16.81987	374.83768	205.18431	23.72144	282.88269	-67.25999	1130.97803	-724.40027	-135.45084	572.05786	-427.50201	22.71974	570.61499	-454.12900	21.56780	550.86310	505.35739	177.54572	545.56189	482.26990	
2814	28.130	-279.62042	7.46042	-292.65634	215.68895	8.92501	-331.52240	1.27617	17.00288	374.38242	203.89616	24.11257	283.04828	-68.69440	1128.02539	-730.46136	-137.57744	571.86127	-431.23462	20.53556	570.20087	-457.19833	14.08010	552.07092	502.47583	165.88208	543.59821	476.84384	
2815	28.140	-282.07550	8.25807	-292.02557	214.31294	8.29936	-332.40164	0.14179	17.64978	373.27084	203.25522	24.75970	282.27527	-70.13010	1124.82373	-735.63470	-139.82710	573.69189	-434.84293	18.68851	570.94629	-459.90680	6.61341	553.35297	499.80490	160.97983	542.92657	473.44751	
2816	28.150	-282.18924	6.49498	-291.15240	207.97432	10.32840	-333.37491	-3.18133	21.33217	371.37509	201.54776	24.99678	280.08572	-71.17868	1122.21069	-740.56781	-141.76588	574.85370	-438.42642	17.41241	571.95618	-462.97830	-0.97867	555.15125	496.97876	158.52090	547.34717	474.67786	
2817	28.160	-283.64777	5.36122	-294.41977	200.00871	13.30216	-330.51611	-4.28534	24.71827	370.32556	200.60223	27.02216	278.96872	-70.88786	1122.42737	-744.46906	-143.61980	575.24237	-441.40744	14.78542	572.20599	-465.31451	-7.09133	557.41394	494.55545	146.44514	547.60339	470.92996	
2818	28.170	-284.43198	5.19696	-294.78287	189.86816	18.09340	-327.43225	-6.64198	34.78840	370.22446	197.35086	28.24335	280.10709	-69.77752	1124.20667	-747.98828	-145.11621	574.80829	-444.88522	12.99179	571.55725	-467.18857	-13.27169	560.29382	491.90109	143.75424	551.73602	471.04468	
2819	28.180	-285.54260	4.12744	-294.56561	183.90538	25.87167	-326.31509	-8.91762	45.29629	368.63516	193.56665	28.96597	277.95026	-67.66006	1125.39587	-751.38367	-146.51553	574.31451	-447.51447	12.52216	570.96747	-469.92368	-18.60783	563.08325	489.59052	138.23175	554.49634	471.70972	
2820	28.190	-286.13684	3.44487	-295.40314	179.02269	36.04281	-326.68127	-14.49068	58.00482	368.23709	188.91553	28.82141	275.29874	-66.04540	1125.30212	-754.32562	-147.94144	573.56848	-449.72809	11.53958	570.34540	-471.85974	-23.76585	564.88806	487.82483	132.94653	556.43170	470.16104	
2821	28.200	-286.16931	2.42724	-295.71640	179.20541	48.42289	-328.71756	-23.25360	70.13227	365.28668	185.84689	28.76650	273.38260	-64.94370	1123.96411	-757.33759	-149.56573	572.81024	-451.57269	9.76720	569.63141	-473.22751	-26.04081	568.11060	488.74191	128.59492	558.20020	468.78674	
2822	28.210	-286.37289	1.99977	-295.86984	179.83301	61.72340	-331.52557	-34.42115	83.10883	361.55878	185.40613	29.57097	273.58395	-64.24545	1122.03979	-760.31561	-151.20097	572.12439	-453.22510	7.64231	568.78436	-474.25848	-32.08019	567.96661	485.11270	125.31544	559.34546	468.91196	
2823	28.220	-286.98529	1.50013	-296.07632	180.81425	75.25886	-333.90753	-47.33140	95.91276	357.03729	185.50995	30.16016	274.06595	-63.96869	1119.64966	-763.09351	-152.83745	571.85626	-454.71777	6.58261	567.85461	-475.37537	-35.15759	569.46008	483.96994	121.33936	560.52252	467.02866	
2824	28.230	-287.26871	0.87458	-296.44516	180.47681	88.19100	-335.65582	-61.54801	108.52057	352.05826	185.13310	30.45342	273.41284	-64.54860	1117.21594	-765.79828	-153.61569	571.20020	-455.99359	5.86841	567.08575	-476.15631	-38.55216	570.68921	482.97842	118.50660	561.51825	467.18323	
2825	28.240	-287.55896	0.36543	-296.94080	177.87209	100.38051	-336.88815	-75.60415	120.29343	346.56082	184.14243	30.76796	273.42337	-65.20385	1114.72473	-768.30121	-153.70198	569.96112	-456.99173	4.99404	566.30688	-477.42038	-41.61132	571.76746	481.93335	114.82903	562.33148	464.86725	
2826	28.250	-287.80328	-0.48125	-297.14462	174.53963	111.01261	-337.88446	-88.36834	131.81894	341.44595	183.97728	31.53956	273.14127	-66.53574	1112.73730	-770.31024	-154.66907	568.78613	-458.28357	4.43506	565.48041	-477.68259	-44.35714	572.62683	481.25235	112.34349	563.48962	464.75067	
2827	28.260	-287.98105	-0.90401	-297.30920	172.22321	120.17712	-338.35471	-98.40884	143.47192	336.81732	183.76607	31.88532	273.14838	-68.06559	1111.50110	-771.89014	-155.61252	567.97632	-459.35153	4.42471	564.23700	-478.20905	-46.61356	574.01660	480.65948	109.49007	564.77112	464.02759	
2828	28.270	-288.01782	-1.25613	-297.61420	170.14749	127.23626	-338.82959	-107.26041	152.71846	333.21588	183.52774	32.48595	273.06152	-69.30250	1110.46765	-773.43176	-155.81857	566.91681	-459.92819	3.93643	563.11377	-478.58221	-49.05374	575.54791	480.02982	108.23549	566.67267	465.08920	
2829	28.280	-288.04489	-1.69425	-297.80991	168.54176	132.34946	-339.36722	-114.78960	158.87833	330.13031	183.83473	32.69804	273.05283	-69.94380	1109.20068	-774.90503	-156.37927	566.02124	-460.65076	3.10642	562.10175	-478.95776	-50.84002	576.66565	479.44614	105.25974	567.78876	463.68256	
2830	28.290	-287.86847	-2.12120	-297.80859	166.95520	135.89355	-339.98987	-122.19228	163.00089	327.99951	183.57224	32.96253	272.62076	-70.37715	1107.72925	-776.64594	-157.02425	564.89215	-460.76398	1.98649	561.11591	-478.78357	-51.65240	578.04858	479.20554	104.52467	568.90918	464.38815	
2831	28.300	-287.96210	-2.90886	-298.01447	165.01891	137.39043	-340.87726	-129.14709	163.21960	326.42834	183.67068	33.17430	272.65515	-70.04032	1105.61829	-778.10870	-157.92035	563.91028	-461.03476	1.14990	560.53137	-479.02042	-53.69204	578.46674	478.82910	102.71438	569.51483	462.95737	
2832	28.310	-288.05661	-3.34270	-298.15091	162.62804	135.75505	-342.24869	-139.46646	164.36935	324.53345	183.45987	33.42789	272.34546	-70.29216	1103.84863	-779.69031	-158.92813	563.20752	-461.57715	-0.04786	559.86481	-479.39304	-54.39574	579.48608	478.59964	101.81271	570.38318	462.35678	
2833	28.320	-288.13913	-3.68516	-298.36276	159.86716	132.09308	-343.33047	-146.63129	161.68890	322.69958	183.36578	33.82113	272.02634	-70.53278	1102.47375	-780.54950	-159.61293	562.86060	-461.59946	0.11418	559.32928	-479.93481	-54.90287	580.34436	478.34177	101.48987	571.57648	462.18213	
2834	28.330	-288.28406	-3.92765	-298.34344	156.45337	126.97533	-344.39505	-153.61470	158.29446	320.38153	183.37633	34.43620	271.64734	-71.81220	1101.39465	-781.72241	-161.10243	562.48962	-462.00479	-0.89546	558.97363	-480.25043	-55.74210	581.37335	478.00623	100.89864	572.44995	461.98703	
2835	28.340	-288.18384	-4.31705	-298.40237	152.20592	120.90952	-345.89926	-160.34337	154.04672	318.19095	183.73929	34.76012	271.47879	-72.94349	1100.80017	-782.39868	-161.00833	561.51135	-461.51779	-1.96137	558.52832	-480.70023	-55.71510	582.35187	478.44165	100.55505	573.36298	461.74115	
2836	28.350	-287.86905	-5.11613	-298.50858	146.93205	113.42533	-347.52533	-164.55424	146.67427	315.92993	183.69734	34.89313	271.31906	-74.92523	1100.20239	-782.93390	-161.34842	560.84393	-461.90720	-2.75862	557.63123	-480.24231	-56.45355	583.17682	477.79288	100.51171	574.23639	462.00360	
